<mxfile host="app.diagrams.net" modified="2023-12-20T15:40:43.286Z" agent="Mozilla/5.0 (Windows NT 10.0; Win64; x64) AppleWebKit/537.36 (KHTML, like Gecko) Chrome/120.0.0.0 Safari/537.36" etag="9fIAlz_2P8F8pZTGuz-b" version="22.1.11" type="device">
  <diagram name="Page-1" id="0HcZPFkB94wfSvHwieI1">
    <mxGraphModel dx="1050" dy="522" grid="1" gridSize="10" guides="1" tooltips="1" connect="1" arrows="1" fold="1" page="1" pageScale="1" pageWidth="827" pageHeight="1169" math="0" shadow="0">
      <root>
        <mxCell id="0" />
        <mxCell id="1" parent="0" />
        <mxCell id="7ZBUFIDIknT4-SncWptb-2" style="edgeStyle=orthogonalEdgeStyle;rounded=0;orthogonalLoop=1;jettySize=auto;html=1;exitX=1;exitY=0.5;exitDx=0;exitDy=0;" edge="1" parent="1" source="7ZBUFIDIknT4-SncWptb-1">
          <mxGeometry relative="1" as="geometry">
            <mxPoint x="190" y="200" as="targetPoint" />
          </mxGeometry>
        </mxCell>
        <mxCell id="7ZBUFIDIknT4-SncWptb-1" value="Web Interface" style="whiteSpace=wrap;html=1;aspect=fixed;" vertex="1" parent="1">
          <mxGeometry x="20" y="160" width="80" height="80" as="geometry" />
        </mxCell>
        <mxCell id="7ZBUFIDIknT4-SncWptb-4" value="Taking survey" style="whiteSpace=wrap;html=1;aspect=fixed;" vertex="1" parent="1">
          <mxGeometry x="190" y="160" width="80" height="80" as="geometry" />
        </mxCell>
        <mxCell id="7ZBUFIDIknT4-SncWptb-5" value="Traveler" style="text;html=1;strokeColor=none;fillColor=none;align=center;verticalAlign=middle;whiteSpace=wrap;rounded=0;" vertex="1" parent="1">
          <mxGeometry x="110" y="178" width="60" height="30" as="geometry" />
        </mxCell>
        <mxCell id="7ZBUFIDIknT4-SncWptb-6" value="Engagement" style="text;html=1;strokeColor=none;fillColor=none;align=center;verticalAlign=middle;whiteSpace=wrap;rounded=0;" vertex="1" parent="1">
          <mxGeometry x="110" y="193" width="60" height="30" as="geometry" />
        </mxCell>
        <mxCell id="7ZBUFIDIknT4-SncWptb-10" style="edgeStyle=orthogonalEdgeStyle;rounded=0;orthogonalLoop=1;jettySize=auto;html=1;exitX=1;exitY=0.5;exitDx=0;exitDy=0;entryX=0;entryY=0.5;entryDx=0;entryDy=0;" edge="1" parent="1" source="7ZBUFIDIknT4-SncWptb-7" target="7ZBUFIDIknT4-SncWptb-9">
          <mxGeometry relative="1" as="geometry" />
        </mxCell>
        <mxCell id="7ZBUFIDIknT4-SncWptb-7" value="Profile generation" style="whiteSpace=wrap;html=1;aspect=fixed;" vertex="1" parent="1">
          <mxGeometry x="290" y="160" width="80" height="80" as="geometry" />
        </mxCell>
        <mxCell id="7ZBUFIDIknT4-SncWptb-14" style="edgeStyle=orthogonalEdgeStyle;rounded=0;orthogonalLoop=1;jettySize=auto;html=1;exitX=1;exitY=0.5;exitDx=0;exitDy=0;entryX=0;entryY=0.5;entryDx=0;entryDy=0;" edge="1" parent="1" source="7ZBUFIDIknT4-SncWptb-9" target="7ZBUFIDIknT4-SncWptb-11">
          <mxGeometry relative="1" as="geometry" />
        </mxCell>
        <mxCell id="7ZBUFIDIknT4-SncWptb-9" value="Decision making" style="whiteSpace=wrap;html=1;aspect=fixed;" vertex="1" parent="1">
          <mxGeometry x="430" y="160" width="80" height="80" as="geometry" />
        </mxCell>
        <mxCell id="7ZBUFIDIknT4-SncWptb-11" value="Recommendation on Travel destination" style="whiteSpace=wrap;html=1;aspect=fixed;" vertex="1" parent="1">
          <mxGeometry x="570" y="150" width="100" height="100" as="geometry" />
        </mxCell>
      </root>
    </mxGraphModel>
  </diagram>
</mxfile>
